<svg xmlns="http://www.w3.org/2000/svg" width="512" height="512" viewBox="0 0 512 512" role="img" aria-labelledby="title desc">
  <title id="title">GroupWire app icon</title>
  <desc id="desc">Deep teal rounded square containing a white W with a mint routing junction.</desc>
  <rect x="24" y="24" width="464" height="464" rx="104" fill="#08685F"/>
  <path d="M92 132h54l50 185 45-145h30l45 145 50-185h54l-78 248h-48l-38-120-38 120h-48z" fill="#FFFFFF"/>
  <circle cx="256" cy="324" r="17" fill="#55D7B0"/>
  <path d="M256 307v-70M256 265c-31 0-43-15-43-42v-26M256 265c31 0 43-15 43-42v-26"
    fill="none" stroke="#FFFFFF" stroke-width="14" stroke-linecap="round" stroke-linejoin="round"/>
  <circle cx="213" cy="188" r="16" fill="#FFFFFF"/>
  <circle cx="256" cy="226" r="16" fill="#FFFFFF"/>
  <circle cx="299" cy="188" r="16" fill="#FFFFFF"/>
</svg>
